<mxfile host="app.diagrams.net" agent="Mozilla/5.0 (Windows NT 10.0; Win64; x64) AppleWebKit/537.36 (KHTML, like Gecko) Chrome/127.0.0.0 Safari/537.36" version="24.7.8">
  <diagram name="‫עמוד-1‬" id="QYruYZfpHUGAf5obuz83">
    <mxGraphModel dx="1050" dy="522" grid="1" gridSize="10" guides="1" tooltips="1" connect="1" arrows="1" fold="1" page="1" pageScale="1" pageWidth="827" pageHeight="1169" math="0" shadow="0">
      <root>
        <mxCell id="0" />
        <mxCell id="1" parent="0" />
        <mxCell id="iEsFP29rcwuOje_lfysj-7" value="" style="edgeStyle=orthogonalEdgeStyle;rounded=0;orthogonalLoop=1;jettySize=auto;html=1;" edge="1" parent="1" source="iEsFP29rcwuOje_lfysj-1" target="iEsFP29rcwuOje_lfysj-5">
          <mxGeometry relative="1" as="geometry" />
        </mxCell>
        <mxCell id="iEsFP29rcwuOje_lfysj-1" value="START" style="rounded=1;whiteSpace=wrap;html=1;" vertex="1" parent="1">
          <mxGeometry x="160" y="40" width="120" height="60" as="geometry" />
        </mxCell>
        <mxCell id="iEsFP29rcwuOje_lfysj-2" value="END" style="rounded=1;whiteSpace=wrap;html=1;" vertex="1" parent="1">
          <mxGeometry x="160" y="410" width="120" height="60" as="geometry" />
        </mxCell>
        <mxCell id="iEsFP29rcwuOje_lfysj-8" value="" style="edgeStyle=orthogonalEdgeStyle;rounded=0;orthogonalLoop=1;jettySize=auto;html=1;" edge="1" parent="1" source="iEsFP29rcwuOje_lfysj-5" target="iEsFP29rcwuOje_lfysj-6">
          <mxGeometry relative="1" as="geometry" />
        </mxCell>
        <mxCell id="iEsFP29rcwuOje_lfysj-5" value="a: int&amp;nbsp;&lt;div&gt;&quot;enter a&quot;&lt;/div&gt;" style="shape=card;whiteSpace=wrap;html=1;" vertex="1" parent="1">
          <mxGeometry x="160" y="120" width="120" height="50" as="geometry" />
        </mxCell>
        <mxCell id="iEsFP29rcwuOje_lfysj-10" value="" style="edgeStyle=orthogonalEdgeStyle;rounded=0;orthogonalLoop=1;jettySize=auto;html=1;" edge="1" parent="1" source="iEsFP29rcwuOje_lfysj-6" target="iEsFP29rcwuOje_lfysj-9">
          <mxGeometry relative="1" as="geometry" />
        </mxCell>
        <mxCell id="iEsFP29rcwuOje_lfysj-6" value="b: int&amp;nbsp;&lt;div&gt;&quot;enter b&quot;&lt;/div&gt;" style="shape=card;whiteSpace=wrap;html=1;" vertex="1" parent="1">
          <mxGeometry x="160" y="190" width="120" height="50" as="geometry" />
        </mxCell>
        <mxCell id="iEsFP29rcwuOje_lfysj-13" value="yes" style="edgeStyle=orthogonalEdgeStyle;rounded=0;orthogonalLoop=1;jettySize=auto;html=1;" edge="1" parent="1" source="iEsFP29rcwuOje_lfysj-9" target="iEsFP29rcwuOje_lfysj-11">
          <mxGeometry relative="1" as="geometry" />
        </mxCell>
        <mxCell id="iEsFP29rcwuOje_lfysj-14" value="no" style="edgeStyle=orthogonalEdgeStyle;rounded=0;orthogonalLoop=1;jettySize=auto;html=1;" edge="1" parent="1" source="iEsFP29rcwuOje_lfysj-9" target="iEsFP29rcwuOje_lfysj-12">
          <mxGeometry relative="1" as="geometry" />
        </mxCell>
        <mxCell id="iEsFP29rcwuOje_lfysj-9" value="a&amp;gt;b&lt;div&gt;?&lt;/div&gt;" style="rhombus;whiteSpace=wrap;html=1;" vertex="1" parent="1">
          <mxGeometry x="180" y="260" width="80" height="80" as="geometry" />
        </mxCell>
        <mxCell id="iEsFP29rcwuOje_lfysj-25" style="edgeStyle=orthogonalEdgeStyle;rounded=0;orthogonalLoop=1;jettySize=auto;html=1;entryX=1;entryY=0.5;entryDx=0;entryDy=0;exitX=0.495;exitY=0.887;exitDx=0;exitDy=0;exitPerimeter=0;" edge="1" parent="1" source="iEsFP29rcwuOje_lfysj-11" target="iEsFP29rcwuOje_lfysj-2">
          <mxGeometry relative="1" as="geometry">
            <Array as="points">
              <mxPoint x="360" y="440" />
            </Array>
          </mxGeometry>
        </mxCell>
        <mxCell id="iEsFP29rcwuOje_lfysj-11" value="a" style="shape=document;whiteSpace=wrap;html=1;boundedLbl=1;" vertex="1" parent="1">
          <mxGeometry x="320" y="340" width="80" height="60" as="geometry" />
        </mxCell>
        <mxCell id="iEsFP29rcwuOje_lfysj-27" style="edgeStyle=orthogonalEdgeStyle;rounded=0;orthogonalLoop=1;jettySize=auto;html=1;entryX=0;entryY=0.5;entryDx=0;entryDy=0;exitX=0.515;exitY=0.833;exitDx=0;exitDy=0;exitPerimeter=0;" edge="1" parent="1" source="iEsFP29rcwuOje_lfysj-12" target="iEsFP29rcwuOje_lfysj-2">
          <mxGeometry relative="1" as="geometry">
            <Array as="points">
              <mxPoint x="80" y="390" />
              <mxPoint x="80" y="440" />
            </Array>
          </mxGeometry>
        </mxCell>
        <mxCell id="iEsFP29rcwuOje_lfysj-12" value="b" style="shape=document;whiteSpace=wrap;html=1;boundedLbl=1;" vertex="1" parent="1">
          <mxGeometry x="40" y="340" width="80" height="60" as="geometry" />
        </mxCell>
      </root>
    </mxGraphModel>
  </diagram>
</mxfile>
